<svg width="158.000000" height="36.000000" viewBox="0 0 158 36" fill="none" xmlns="http://www.w3.org/2000/svg" xmlns:xlink="http://www.w3.org/1999/xlink">
	<desc>
			Created with Pixso.
	</desc>
	<defs/>
	<path id="Meta" d="M45.0024 9.53181L45.0024 27.8182L46.979 27.8182L46.979 13.3205L53.1069 22.1727L53.2056 22.1727L59.3333 13.3528L59.3333 27.8182L61.3101 27.8182L61.3101 9.53181L59.5806 9.53181L53.1677 18.802L46.7319 9.53181L45.0024 9.53181ZM85.6521 27.9655C84.4661 27.9655 83.552 27.6218 82.9094 26.9345C82.2671 26.2473 81.9458 25.2655 81.9458 23.9891L81.9458 16.5027L79.4998 16.5027L79.4998 14.6618L80.1174 14.6618C80.6775 14.6618 81.1223 14.4818 81.4517 14.1218C81.7812 13.7455 81.9458 13.2791 81.9458 12.7227L81.9458 11.6182L83.7991 11.6182L83.7991 14.6618L86.7146 14.6618L86.7146 16.5027L83.7991 16.5027L83.7991 23.9891C83.7991 24.4309 83.865 24.8236 83.9966 25.1673C84.1284 25.4945 84.3508 25.7564 84.6638 25.9527C84.9932 26.1491 85.4297 26.2473 85.9734 26.2473C86.1052 26.2473 86.2617 26.2391 86.4429 26.2227C86.624 26.2064 86.7805 26.19 86.9124 26.1736L86.9124 27.8182C86.7146 27.8673 86.4922 27.9 86.2451 27.9164C85.998 27.9491 85.8003 27.9655 85.6521 27.9655ZM68.054 27.2291Q68.4883 27.4837 68.9512 27.6649Q70.095 28.1127 71.4143 28.1127C72.3203 28.1127 73.1438 27.9655 73.8853 27.6709C74.6428 27.36 75.2935 26.9591 75.8372 26.4682C76.3806 25.9609 76.7842 25.4127 77.0479 24.8236L75.4666 23.9891C75.0547 24.6764 74.5193 25.2491 73.8604 25.7073C73.2014 26.1655 72.3862 26.3945 71.4143 26.3945Q70.866 26.3945 70.3455 26.2737L70.3455 26.2737L70.3455 26.2737Q69.6702 26.1168 69.0422 25.7564C68.3174 25.3309 67.741 24.7336 67.3127 23.9645C66.98 23.33 66.8086 22.61 66.7983 21.8045L77.2207 21.8045C77.2537 21.5918 77.2783 21.3873 77.2949 21.1909C77.3113 20.9782 77.3196 20.79 77.3196 20.6264Q77.3196 20.0645 77.2241 19.5193L77.2241 19.519Q77.1191 18.9212 76.8997 18.3436C76.6196 17.5909 76.2161 16.92 75.689 16.3309Q75.4487 16.0552 75.177 15.8157L75.1768 15.8156Q74.553 15.2662 73.7615 14.9073C73.0203 14.5473 72.1721 14.3673 71.2166 14.3673Q69.9668 14.3673 68.8833 14.7915L68.8831 14.7915Q68.4028 14.9795 67.9551 15.2509C66.9998 15.84 66.2419 16.65 65.6819 17.6809Q64.8418 19.2027 64.8418 21.1909Q64.8418 22.9799 65.542 24.431L65.5422 24.4316Q65.6201 24.5929 65.7065 24.75C66.2832 25.7973 67.0657 26.6236 68.054 27.2291ZM91.5063 27.6464C92.1653 27.9573 92.9148 28.1127 93.7549 28.1127C94.5291 28.1127 95.2373 27.9982 95.8796 27.7691C96.5386 27.5236 97.1069 27.2045 97.5847 26.8118C97.9155 26.5379 98.1873 26.2457 98.3999 25.9351L98.3999 27.8182L100.253 27.8182L100.253 18.7855C100.253 17.9182 100.039 17.1573 99.6108 16.5027Q99.4456 16.2338 99.2434 15.9964Q98.6892 15.3455 97.8564 14.9318C97.1152 14.5555 96.2585 14.3673 95.2866 14.3673C94.5454 14.3673 93.8289 14.5064 93.1372 14.7845C92.4453 15.0464 91.8276 15.4064 91.2839 15.8645C90.7568 16.3227 90.3696 16.83 90.1226 17.3864L91.8027 18.2945C92.0994 17.6564 92.5522 17.1409 93.1619 16.7482C93.7712 16.3391 94.4795 16.1345 95.2866 16.1345C96.2092 16.1345 96.9587 16.38 97.5352 16.8709C98.1118 17.3618 98.3999 18 98.3999 18.7855L98.3999 19.4645L93.6064 20.2582C92.6348 20.4218 91.8357 20.7 91.21 21.0927C90.584 21.4855 90.1226 21.9682 89.8262 22.5409C89.5295 23.0973 89.3813 23.7191 89.3813 24.4064C89.3813 25.1264 89.5708 25.7645 89.9497 26.3209C90.3286 26.8773 90.8474 27.3191 91.5063 27.6464ZM98.3999 21.1336L98.3999 22.1236C98.3999 22.9255 98.2107 23.6536 97.8318 24.3082C97.4529 24.9627 96.9258 25.4864 96.2505 25.8791C95.575 26.2555 94.7844 26.4436 93.8784 26.4436C93.1372 26.4436 92.5276 26.2391 92.0498 25.83C91.5886 25.4209 91.3582 24.9218 91.3582 24.3327C91.3582 23.7273 91.564 23.2036 91.9758 22.7618C92.4041 22.32 93.0959 22.0173 94.0513 21.8536L98.3999 21.1336ZM66.8279 20.0864Q66.9202 19.2159 67.2878 18.5155C67.6833 17.7464 68.2268 17.1491 68.9187 16.7236Q69.4619 16.3974 70.0503 16.2379L70.0503 16.2379Q70.6128 16.0855 71.2166 16.0855Q72.022 16.0855 72.7222 16.3566Q73.0962 16.5014 73.4404 16.7236C74.0994 17.1327 74.6016 17.6973 74.9475 18.4173C75.208 18.9229 75.3367 19.4793 75.3333 20.0864L66.8279 20.0864Z" fill="#141624" fill-opacity="1.000000" fill-rule="evenodd"/>
	<path id="Blog" d="M122.194 9.23728L122.194 27.8182L125.9 27.8182L125.9 9.23728L122.194 9.23728ZM105.406 9.53182L105.406 27.8182L113.19 27.8182Q116.402 27.8182 118.206 26.3209Q118.763 25.8582 119.148 25.2806L119.148 25.2805Q120.009 23.9892 120.009 22.1236Q120.009 21.1173 119.713 20.2091Q119.416 19.2764 118.625 18.4909C118.433 18.2997 118.211 18.1184 117.959 17.9468C118.205 17.7104 118.41 17.4582 118.576 17.19C119.021 16.4536 119.243 15.6846 119.243 14.8827C119.243 13.7536 119.004 12.7964 118.527 12.0109C118.049 11.2091 117.357 10.5955 116.451 10.17Q115.092 9.53182 113.19 9.53182L105.406 9.53182ZM113.461 16.4046L109.236 16.4046L109.236 12.7227L113.461 12.7227Q114.189 12.7227 114.669 13.0676L114.669 13.0676Q114.775 13.1444 114.87 13.2382Q115.037 13.3887 115.152 13.5715Q115.413 13.985 115.413 14.5636C115.413 15.12 115.232 15.57 114.87 15.9136Q114.803 15.9768 114.73 16.0318Q114.237 16.4046 113.461 16.4046ZM135.309 28.1127C133.974 28.1127 132.755 27.81 131.652 27.2046Q130.799 26.7294 130.121 26.0727Q129.504 25.4744 129.033 24.7255C128.39 23.6618 128.069 22.4591 128.069 21.1173C128.069 19.7591 128.39 18.5564 129.033 17.5091Q129.504 16.7601 130.121 16.1618Q130.799 15.5052 131.652 15.03C132.755 14.4246 133.974 14.1218 135.309 14.1218Q136.852 14.1218 138.174 14.6616Q138.567 14.822 138.941 15.03C140.028 15.6355 140.893 16.4618 141.535 17.5091C142.194 18.5564 142.523 19.7591 142.523 21.1173C142.523 22.4591 142.194 23.6618 141.535 24.7255C140.893 25.7727 140.028 26.5991 138.941 27.2046Q138.567 27.4126 138.174 27.573Q136.852 28.1127 135.309 28.1127ZM148.438 32.7027Q149.772 33.2182 151.329 33.2182C152.63 33.2182 153.775 32.9564 154.763 32.4327C155.768 31.9091 156.559 31.1809 157.135 30.2482Q157.335 29.9312 157.488 29.5933Q158 28.4661 158 27.1064L158 14.4164L154.541 14.4164L154.541 15.824C154.134 15.3496 153.673 14.9785 153.157 14.7109C152.432 14.3182 151.584 14.1218 150.612 14.1218C149.377 14.1218 148.273 14.4 147.301 14.9564C146.329 15.5127 145.563 16.2818 145.003 17.2636C144.443 18.2291 144.163 19.3418 144.163 20.6018C144.163 21.8618 144.443 22.9909 145.003 23.9891Q145.391 24.6684 145.915 25.2171Q146.527 25.8581 147.326 26.3209C148.314 26.8773 149.435 27.1555 150.686 27.1555Q152.144 27.1555 153.231 26.6155C153.624 26.4115 153.978 26.1521 154.294 25.8375L154.294 27.1064C154.294 27.6791 154.17 28.1782 153.923 28.6036C153.693 29.0291 153.355 29.3482 152.91 29.5609Q152.243 29.9046 151.329 29.9046C150.555 29.9046 149.887 29.7246 149.327 29.3646C148.767 29.0046 148.397 28.5136 148.216 27.8918L144.781 29.0946C145.061 29.9291 145.514 30.6491 146.14 31.2546C146.782 31.8764 147.548 32.3591 148.438 32.7027ZM135.309 24.7991C135.984 24.7991 136.569 24.6436 137.063 24.3327C137.573 24.0218 137.969 23.5882 138.249 23.0318C138.545 22.4755 138.694 21.8373 138.694 21.1173C138.694 20.3973 138.545 19.7673 138.249 19.2273C137.969 18.6709 137.573 18.2373 137.063 17.9264C136.569 17.5991 135.984 17.4355 135.309 17.4355Q134.469 17.4355 133.799 17.7726Q133.661 17.8423 133.53 17.9264C133.019 18.2373 132.615 18.6709 132.319 19.2273Q131.899 20.0373 131.899 21.1173Q131.899 22.1973 132.319 23.0318C132.615 23.5882 133.019 24.0218 133.53 24.3327Q133.607 24.38 133.688 24.4225Q134.398 24.7991 135.309 24.7991ZM152.836 23.4246C152.375 23.6864 151.831 23.8173 151.205 23.8173C150.579 23.8173 150.019 23.6864 149.525 23.4246C149.047 23.1464 148.668 22.77 148.388 22.2955Q147.993 21.5836 147.993 20.6509Q147.993 19.6936 148.388 18.9818Q148.65 18.5225 149.028 18.1969Q149.255 18.0005 149.525 17.8527C150.019 17.5746 150.579 17.4355 151.205 17.4355C151.815 17.4355 152.35 17.5746 152.811 17.8527Q153.047 17.9865 153.248 18.1602Q153.638 18.4963 153.898 18.9818C154.162 19.4564 154.294 20.0127 154.294 20.6509C154.294 21.2891 154.162 21.8455 153.898 22.32Q153.703 22.6953 153.418 22.9819Q153.163 23.2389 152.836 23.4246ZM113.635 24.5046L109.236 24.5046L109.236 19.7182L113.635 19.7182C114.409 19.7182 115.026 19.9391 115.488 20.3809Q115.702 20.5861 115.85 20.8313Q116.179 21.378 116.179 22.1236Q116.179 22.8149 115.883 23.3377L115.883 23.3377Q115.726 23.6132 115.488 23.8418C115.026 24.2836 114.409 24.5046 113.635 24.5046Z" fill="#141624" fill-opacity="1.000000" fill-rule="evenodd"/>
	<path id="Union" d="M18 36C27.9412 36 36 27.9411 36 18C36 8.05888 27.9412 0 18 0C8.05884 0 0 8.05888 0 18C0 22.152 1.40576 25.9756 3.76733 29.021L7.7356 14.0299C9.38672 7.52344 13.6758 4.15725 20.5615 4.15725L22.936 4.15725C27.7786 4.15725 31.335 8.70307 30.1699 13.4033C29.9609 14.2463 29.5703 15.0334 29.0254 15.7097L27.0046 18.2174C26.4861 18.8609 26.2969 19.7092 26.4929 20.5121L27.1089 23.0338C27.4277 24.339 27.3696 25.708 26.9409 26.9814C25.4832 31.3132 21.4226 34.231 16.8521 34.231L10.2087 34.231C12.5662 35.3648 15.209 36 18 36ZM17.3774 9.90663C16.259 9.90663 15.281 10.6609 14.9971 11.7427L13.6216 16.9828L19.0554 16.9828C21.0654 16.9828 22.8228 15.6273 23.333 13.6831L23.4509 13.2339C23.8926 11.5517 22.6235 9.90663 20.8843 9.90663L17.3774 9.90663ZM17.9434 11.4988C17.3049 11.4988 16.7466 11.9289 16.5835 12.5462L15.833 15.3907L18.8374 15.3907C19.949 15.3907 20.9207 14.6451 21.2029 13.5758L21.2681 13.3288C21.5122 12.4036 20.8105 11.4988 19.8489 11.4988L17.9434 11.4988ZM17.7 21.7592L14.1931 21.7592C13.0747 21.7592 12.0969 22.5135 11.8127 23.5953L10.4373 28.8354L15.8711 28.8354C17.8811 28.8354 19.6384 27.4799 20.1487 25.5357L20.2666 25.0865C20.7083 23.4043 19.4392 21.7592 17.7 21.7592ZM16.6646 23.3513L14.759 23.3513C14.1206 23.3513 13.5623 23.7814 13.3994 24.3988L12.6487 27.2432L15.6533 27.2432C16.7646 27.2432 17.7363 26.4977 18.0186 25.4284L18.0837 25.1814C18.3279 24.2561 17.6262 23.3513 16.6646 23.3513Z" fill="#141624" fill-opacity="1.000000" fill-rule="evenodd"/>
</svg>
